<svg id="Layer_1" data-name="Layer 1" xmlns="http://www.w3.org/2000/svg" width="8.97cm" height="4.2cm" viewBox="0 0 254.21 118.95">
  <defs>
    <style>
      .cls-1 {
        fill: #0071b5;
      }

      .cls-2 {
        fill: #323e48;
      }
    </style>
  </defs>
  <title>Expaq-Blue-Logo</title>
  <g>
    <path class="cls-1" d="M178.17,45.91a23.41,23.41,0,0,0-13,3.93V44.68h-12v66.88h12V89a23.49,23.49,0,1,0,13-43.06Zm0,36a12.5,12.5,0,1,1,12.5-12.5A12.52,12.52,0,0,1,178.17,81.91Z" transform="translate(-54.84 -15.16)"/>
    <path class="cls-1" d="M295.81,44.68v5.16a23.51,23.51,0,1,0,0,39.13v22.59h12V44.68Zm-13,37.23a12.5,12.5,0,1,1,12.5-12.5A12.52,12.52,0,0,1,282.81,81.91Z" transform="translate(-54.84 -15.16)"/>
    <path class="cls-1" d="M242.84,44.68v5.16a23.51,23.51,0,1,0,0,39.13v5h12V44.68Zm-13,37.23a12.5,12.5,0,1,1,12.5-12.5A12.52,12.52,0,0,1,229.84,81.91Z" transform="translate(-54.84 -15.16)"/>
    <polygon class="cls-1" points="42.72 31.02 42.72 19.02 12.01 19.02 0.01 19.02 0 19.02 0 31.02 0.01 31.02 0.01 41.56 0 41.56 0 53.56 0.01 53.56 0.01 64.09 0 64.09 0 76.09 42.72 76.09 42.72 64.09 12.01 64.09 12.01 53.56 42.72 53.56 42.72 41.56 12.01 41.56 12.01 31.02 42.72 31.02"/>
    <g>
      <path class="cls-1" d="M178.46,101.28a4.5,4.5,0,0,1,3.22,1.31l.33.33,1.37-1.18-.38-.38a6.67,6.67,0,0,0-9.17-.09,6.44,6.44,0,0,0-1.78,4.67,6,6,0,0,0,6.41,6.3,6.37,6.37,0,0,0,4.54-1.87l.36-.36L182,108.77l-.34.34a4.67,4.67,0,0,1-3.24,1.31,4.3,4.3,0,0,1-4.56-4.52,4.69,4.69,0,0,1,1.26-3.39A4.5,4.5,0,0,1,178.46,101.28Z" transform="translate(-54.84 -15.16)"/>
      <path class="cls-1" d="M196.25,106.54a3.92,3.92,0,0,0,1.1-2.85,4.07,4.07,0,0,0-4.28-4.07h-5.56v12.49h1.89v-4.35h2.42l4,4.35h2.53l-4.15-4.49A4,4,0,0,0,196.25,106.54Zm-6.85-5.1h3.67a2.28,2.28,0,0,1,1.69.64,2.21,2.21,0,0,1,.62,1.6c0,1.49-.83,2.24-2.41,2.24H189.4Z" transform="translate(-54.84 -15.16)"/>
      <polygon class="cls-1" points="148.47 91.56 155.2 91.56 155.2 89.76 148.47 89.76 148.47 86.29 155.53 86.29 155.53 84.46 146.6 84.46 146.6 96.95 155.73 96.95 155.73 95.09 148.47 95.09 148.47 91.56"/>
      <path class="cls-1" d="M219,99.62l-5.61,12.49h2.05l1.25-2.82h6.21l1.27,2.82h2.05l-5.61-12.49Zm-1.52,7.85,2.31-5.26,2.32,5.26Z" transform="translate(-54.84 -15.16)"/>
      <polygon class="cls-1" points="172.05 86.26 176.21 86.26 176.21 96.95 178.09 96.95 178.09 86.26 182.25 86.26 182.25 84.47 172.05 84.47 172.05 86.26"/>
      <rect class="cls-1" x="186.22" y="84.46" width="1.87" height="12.49"/>
      <path class="cls-1" d="M253.89,99.44c-4.34,0-6.29,3.22-6.29,6.41s2,6.46,6.29,6.46,6.28-3.33,6.3-6.42a6.54,6.54,0,0,0-1.8-4.72A6.17,6.17,0,0,0,253.89,99.44Zm0,11c-3,0-4.41-2.32-4.42-4.63a4.73,4.73,0,0,1,1.26-3.41,4.59,4.59,0,1,1,3.16,8Z" transform="translate(-54.84 -15.16)"/>
      <polygon class="cls-1" points="217.87 93.06 210.87 84.46 209.75 84.46 209.75 96.95 211.64 96.95 211.64 88.36 218.65 96.95 219.74 96.95 219.74 84.46 217.87 84.46 217.87 93.06"/>
      <path class="cls-1" d="M284.33,104.81l-.13,0c-2.19-.41-3.1-.73-3.1-1.67,0-1.78,2.67-1.83,3-1.83,1.36,0,2.39.25,3.06,1.32l.26.42,1.6-1-.29-.44c-1.21-1.8-2.73-2.17-4.62-2.17a5.77,5.77,0,0,0-4,1.37,3.08,3.08,0,0,0-.89,2.31c0,2.54,2.58,3,4.66,3.45s3.38.74,3.37,2c0,1.74-2.21,1.93-3.16,1.93a4,4,0,0,1-3.48-1.81l-.23-.45-1.68.85.23.44a5.65,5.65,0,0,0,5.16,2.77c3.14,0,5-1.38,5-3.71C289.12,105.73,286.58,105.24,284.33,104.81Z" transform="translate(-54.84 -15.16)"/>
    </g>
    <g>
      <path class="cls-2" d="M153.47,120.86h1.6l2.91,4.87,2.91-4.87h1.61l-3.83,6V131H157.3v-4.08Z" transform="translate(-54.84 -15.16)"/>
      <path class="cls-2" d="M167.91,124.34a3.76,3.76,0,0,1,1,2.8,4.8,4.8,0,0,1-.87,3,3.11,3.11,0,0,1-2.67,1.16,3,3,0,0,1-2.41-1,4.11,4.11,0,0,1-.89-2.77,4.45,4.45,0,0,1,.94-3,3.17,3.17,0,0,1,2.52-1.1A3.34,3.34,0,0,1,167.91,124.34Zm-.77,4.91a4.73,4.73,0,0,0,.45-2.08,3.69,3.69,0,0,0-.33-1.68,1.83,1.83,0,0,0-1.78-1,1.76,1.76,0,0,0-1.64.87,4.07,4.07,0,0,0-.51,2.09,3.56,3.56,0,0,0,.51,2,1.79,1.79,0,0,0,1.62.78A1.7,1.7,0,0,0,167.14,129.25Z" transform="translate(-54.84 -15.16)"/>
      <path class="cls-2" d="M172,123.61v4.9a2.07,2.07,0,0,0,.18.92,1.2,1.2,0,0,0,1.2.66,1.7,1.7,0,0,0,1.72-1.16,4.8,4.8,0,0,0,.25-1.7v-3.62h1.24V131h-1.17V129.9a2.57,2.57,0,0,1-.59.71,2.53,2.53,0,0,1-1.69.58,2.16,2.16,0,0,1-2.11-1.06,3.2,3.2,0,0,1-.31-1.51v-5Z" transform="translate(-54.84 -15.16)"/>
      <path class="cls-2" d="M183.24,120.86h1.26v1.41h-1.26Zm0,2.78h1.26V131h-1.26Z" transform="translate(-54.84 -15.16)"/>
      <path class="cls-2" d="M186.73,123.61H188v1a4.18,4.18,0,0,1,.8-.79,2.4,2.4,0,0,1,1.39-.42,2.19,2.19,0,0,1,1.42.43,2.29,2.29,0,0,1,.55.73,2.63,2.63,0,0,1,2.23-1.16,2.07,2.07,0,0,1,2,1.07,3.59,3.59,0,0,1,.29,1.56V131h-1.29v-5.13a1.2,1.2,0,0,0-.37-1,1.44,1.44,0,0,0-.9-.28,1.77,1.77,0,0,0-1.26.49,2.16,2.16,0,0,0-.53,1.63V131h-1.26v-4.82a2.52,2.52,0,0,0-.18-1.1,1.1,1.1,0,0,0-1-.51,1.82,1.82,0,0,0-1.28.54,2.68,2.68,0,0,0-.58,2V131h-1.24Z" transform="translate(-54.84 -15.16)"/>
      <path class="cls-2" d="M202.8,126.52a.7.7,0,0,0,.58-.36,1.19,1.19,0,0,0,.08-.48,1,1,0,0,0-.45-.92,2.42,2.42,0,0,0-1.29-.29,1.64,1.64,0,0,0-1.38.53,1.68,1.68,0,0,0-.29.87h-1.16a2.15,2.15,0,0,1,.88-1.91,3.61,3.61,0,0,1,2-.53,4,4,0,0,1,2.12.49,1.68,1.68,0,0,1,.8,1.55v4.25a.57.57,0,0,0,.08.31.4.4,0,0,0,.34.12h.18l.22,0V131a3.94,3.94,0,0,1-.44.11l-.41,0a1,1,0,0,1-.93-.46,1.76,1.76,0,0,1-.21-.68,3.23,3.23,0,0,1-1.09.86,3.46,3.46,0,0,1-1.57.37,2.33,2.33,0,0,1-1.68-.63,2.07,2.07,0,0,1-.65-1.56,2,2,0,0,1,.64-1.59,3.13,3.13,0,0,1,1.68-.69Zm-2.61,3.35a1.43,1.43,0,0,0,.93.31,2.85,2.85,0,0,0,1.27-.3,1.7,1.7,0,0,0,1-1.65v-1a2.47,2.47,0,0,1-.58.24,6.19,6.19,0,0,1-.7.14l-.75.09a3.17,3.17,0,0,0-1,.28,1.11,1.11,0,0,0-.57,1A1,1,0,0,0,200.19,129.87Z" transform="translate(-54.84 -15.16)"/>
      <path class="cls-2" d="M211.16,123.9a3.57,3.57,0,0,1,.71.7v-.93H213v6.72a4.89,4.89,0,0,1-.41,2.22,3,3,0,0,1-2.9,1.5,3.59,3.59,0,0,1-2-.53,2.09,2.09,0,0,1-.91-1.67h1.26a1.39,1.39,0,0,0,.36.76,2.25,2.25,0,0,0,3.17-.59,5.46,5.46,0,0,0,.24-2.12,2.37,2.37,0,0,1-.89.84,2.89,2.89,0,0,1-1.38.28,3,3,0,0,1-2.09-.85,3.76,3.76,0,0,1-.9-2.82,4.3,4.3,0,0,1,.9-2.9,2.82,2.82,0,0,1,2.19-1A2.73,2.73,0,0,1,211.16,123.9Zm.15,1.33a1.82,1.82,0,0,0-1.44-.66,1.77,1.77,0,0,0-1.78,1.23,4.79,4.79,0,0,0-.25,1.71,3,3,0,0,0,.5,1.9,1.62,1.62,0,0,0,1.36.65,1.9,1.9,0,0,0,1.87-1.2,4,4,0,0,0,.3-1.59A3.13,3.13,0,0,0,211.31,125.23Z" transform="translate(-54.84 -15.16)"/>
      <path class="cls-2" d="M215.26,120.86h1.26v1.41h-1.26Zm0,2.78h1.26V131h-1.26Z" transform="translate(-54.84 -15.16)"/>
      <path class="cls-2" d="M218.75,123.61h1.17v1a3.36,3.36,0,0,1,1.11-.93,3,3,0,0,1,1.31-.28,2.14,2.14,0,0,1,2.12,1.1,3.91,3.91,0,0,1,.3,1.71V131H223.5v-4.66a2.37,2.37,0,0,0-.2-1.08,1.21,1.21,0,0,0-1.2-.69,2.43,2.43,0,0,0-.72.09,1.89,1.89,0,0,0-.9.6,1.93,1.93,0,0,0-.4.76,5.23,5.23,0,0,0-.09,1.11V131h-1.24Z" transform="translate(-54.84 -15.16)"/>
      <path class="cls-2" d="M231.51,123.81a2.78,2.78,0,0,1,1.12,1,3.43,3.43,0,0,1,.49,1.31,8.78,8.78,0,0,1,.11,1.62h-5.37a3.16,3.16,0,0,0,.53,1.81,1.76,1.76,0,0,0,1.52.68,1.94,1.94,0,0,0,1.54-.64,2.15,2.15,0,0,0,.46-.87h1.22a2.56,2.56,0,0,1-.32.91,3.57,3.57,0,0,1-.61.82,2.93,2.93,0,0,1-1.39.74,4.4,4.4,0,0,1-1,.11,3.08,3.08,0,0,1-2.32-1,4,4,0,0,1-.95-2.81,4.25,4.25,0,0,1,1-2.89,3.15,3.15,0,0,1,2.51-1.11A3.27,3.27,0,0,1,231.51,123.81Zm.45,2.9a3.26,3.26,0,0,0-.35-1.29,1.79,1.79,0,0,0-1.69-.9,1.86,1.86,0,0,0-1.42.62,2.29,2.29,0,0,0-.61,1.57Z" transform="translate(-54.84 -15.16)"/>
      <path class="cls-2" d="M235.42,132.44a.89.89,0,0,0,.67-.68,1.8,1.8,0,0,0,.1-.6v-.08s0-.06,0-.09h-.75v-1.5h1.47v1.39a3,3,0,0,1-.33,1.44,1.49,1.49,0,0,1-1.14.76Z" transform="translate(-54.84 -15.16)"/>
      <path class="cls-2" d="M244.54,120.86l1.91,8.23,2.29-8.23h1.49l2.29,8.24,1.91-8.24h1.5L253.27,131h-1.44l-2.34-8.4-2.35,8.4H245.7l-2.65-10.13Z" transform="translate(-54.84 -15.16)"/>
      <path class="cls-2" d="M261.7,123.81a2.68,2.68,0,0,1,1.11,1,3.29,3.29,0,0,1,.5,1.31,8.78,8.78,0,0,1,.11,1.62h-5.37a3.23,3.23,0,0,0,.52,1.81,1.77,1.77,0,0,0,1.53.68,2,2,0,0,0,1.54-.64,2.26,2.26,0,0,0,.45-.87h1.22a2.56,2.56,0,0,1-.32.91,3.55,3.55,0,0,1-.6.82,3,3,0,0,1-1.39.74,4.4,4.4,0,0,1-1,.11,3.07,3.07,0,0,1-2.32-1,3.91,3.91,0,0,1-.95-2.81,4.25,4.25,0,0,1,1-2.89,3.14,3.14,0,0,1,2.5-1.11A3.31,3.31,0,0,1,261.7,123.81Zm.44,2.9a3.1,3.1,0,0,0-.35-1.29,1.77,1.77,0,0,0-1.68-.9,1.89,1.89,0,0,0-1.43.62,2.38,2.38,0,0,0-.61,1.57Z" transform="translate(-54.84 -15.16)"/>
      <path class="cls-2" d="M274.49,124a2.89,2.89,0,0,1,.95,2.09h-1.21a2.21,2.21,0,0,0-.5-1.14,1.62,1.62,0,0,0-1.27-.45,1.74,1.74,0,0,0-1.69,1.16,4.6,4.6,0,0,0-.33,1.85,3.44,3.44,0,0,0,.47,1.87,1.83,1.83,0,0,0,2.7.28,2.61,2.61,0,0,0,.62-1.28h1.21a3.25,3.25,0,0,1-1,2.14,3.18,3.18,0,0,1-2.11.68,2.8,2.8,0,0,1-2.31-1.06,4,4,0,0,1-.87-2.64,4.47,4.47,0,0,1,.95-3,3,3,0,0,1,2.4-1.08A3.17,3.17,0,0,1,274.49,124Z" transform="translate(-54.84 -15.16)"/>
      <path class="cls-2" d="M277.06,123.61h1.18v1.27A3,3,0,0,1,279,124a1.87,1.87,0,0,1,1.31-.53h.11l.29,0v1.31l-.21,0h-.2a1.76,1.76,0,0,0-1.44.6,2.08,2.08,0,0,0-.5,1.39V131h-1.25Z" transform="translate(-54.84 -15.16)"/>
      <path class="cls-2" d="M286.64,123.81a2.71,2.71,0,0,1,1.12,1,3.28,3.28,0,0,1,.49,1.31,8,8,0,0,1,.11,1.62H283a3.24,3.24,0,0,0,.53,1.81,1.77,1.77,0,0,0,1.53.68,2,2,0,0,0,1.54-.64,2.26,2.26,0,0,0,.45-.87h1.22a2.56,2.56,0,0,1-.32.91,3.31,3.31,0,0,1-.61.82,2.88,2.88,0,0,1-1.39.74,4.31,4.31,0,0,1-1,.11,3.05,3.05,0,0,1-2.32-1,3.91,3.91,0,0,1-1-2.81,4.25,4.25,0,0,1,1-2.89,3.16,3.16,0,0,1,2.51-1.11A3.24,3.24,0,0,1,286.64,123.81Zm.45,2.9a3.26,3.26,0,0,0-.35-1.29,1.79,1.79,0,0,0-1.69-.9,1.87,1.87,0,0,0-1.42.62,2.33,2.33,0,0,0-.61,1.57Z" transform="translate(-54.84 -15.16)"/>
      <path class="cls-2" d="M294.25,126.52a.69.69,0,0,0,.57-.36,1.19,1.19,0,0,0,.08-.48,1,1,0,0,0-.45-.92,2.42,2.42,0,0,0-1.29-.29,1.64,1.64,0,0,0-1.38.53,1.68,1.68,0,0,0-.29.87h-1.16a2.15,2.15,0,0,1,.88-1.91,3.62,3.62,0,0,1,2-.53,4,4,0,0,1,2.11.49,1.69,1.69,0,0,1,.81,1.55v4.25a.49.49,0,0,0,.08.31q.07.12.33.12h.19l.22,0V131c-.2.06-.34.09-.44.11l-.42,0a1,1,0,0,1-.93-.46,1.76,1.76,0,0,1-.21-.68,3.13,3.13,0,0,1-1.09.86,3.43,3.43,0,0,1-1.57.37,2.29,2.29,0,0,1-1.67-.63,2,2,0,0,1-.66-1.56,2,2,0,0,1,.65-1.59,3.07,3.07,0,0,1,1.68-.69Zm-2.62,3.35a1.47,1.47,0,0,0,.93.31,2.85,2.85,0,0,0,1.27-.3,1.71,1.71,0,0,0,1-1.65v-1a2.77,2.77,0,0,1-.59.24,6.19,6.19,0,0,1-.7.14l-.75.09a3,3,0,0,0-1,.28,1.1,1.1,0,0,0-.58,1A1,1,0,0,0,291.63,129.87Z" transform="translate(-54.84 -15.16)"/>
      <path class="cls-2" d="M298.74,121.54H300v2.07h1.18v1H300v4.82a.5.5,0,0,0,.26.51,1.12,1.12,0,0,0,.48.08h.19l.25,0v1l-.45.09a3.84,3.84,0,0,1-.5,0,1.34,1.34,0,0,1-1.18-.45,2,2,0,0,1-.31-1.15v-4.89h-1v-1h1Z" transform="translate(-54.84 -15.16)"/>
      <path class="cls-2" d="M307.33,123.81a2.78,2.78,0,0,1,1.12,1,3.43,3.43,0,0,1,.49,1.31,8.78,8.78,0,0,1,.11,1.62h-5.37a3.16,3.16,0,0,0,.53,1.81,1.74,1.74,0,0,0,1.52.68,2,2,0,0,0,1.54-.64,2.28,2.28,0,0,0,.46-.87H309a2.77,2.77,0,0,1-.32.91,3.89,3.89,0,0,1-.61.82,3,3,0,0,1-1.39.74,4.4,4.4,0,0,1-1,.11,3.08,3.08,0,0,1-2.32-1,4,4,0,0,1-.95-2.81,4.25,4.25,0,0,1,1-2.89,3.15,3.15,0,0,1,2.51-1.11A3.27,3.27,0,0,1,307.33,123.81Zm.44,2.9a3.27,3.27,0,0,0-.34-1.29,1.79,1.79,0,0,0-1.69-.9,1.86,1.86,0,0,0-1.42.62,2.29,2.29,0,0,0-.61,1.57Z" transform="translate(-54.84 -15.16)"/>
    </g>
    <g>
      <polygon class="cls-1" points="78.62 52.47 94.18 29.52 80.13 29.52 80.13 29.52 85.63 29.52 85.63 31.86 78.8 31.86 78.8 31.81 73.9 40.25 76.03 40.25 76.03 45.31 70.97 45.31 70.97 45.29 65.95 36.66 57.87 36.66 57.87 29.52 47.75 29.52 63.31 52.47 46.87 76.09 60.86 76.09 70.97 60.5 81.07 76.09 95.06 76.09 78.62 52.47"/>
      <rect class="cls-1" x="59.5" y="10.18" width="10.13" height="10.13"/>
      <rect class="cls-1" x="41.18" width="5.07" height="5.07"/>
      <rect class="cls-1" x="48.25" y="4.53" width="8.38" height="8.38"/>
      <polygon class="cls-1" points="61.53 25.23 53.15 25.23 53.15 16.85 58.59 16.85 58.69 21.24 61.53 21.24 61.53 25.23"/>
      <rect class="cls-1" x="57.87" y="28.28" width="8.38" height="1.23"/>
      <polygon class="cls-1" points="71.97 18.19 71.97 31.86 78.8 31.86 78.8 29.52 85.63 29.52 85.63 18.19 71.97 18.19"/>
    </g>
  </g>
</svg>
