<svg xmlns="http://www.w3.org/2000/svg" width="9.06cm" height="4.98cm" viewBox="0 0 256.87 141.09">
  <defs>
    <style>
      .cls-1 {
        fill: #fff;
      }

      .cls-2 {
        fill: #0071b5;
      }
    </style>
  </defs>
  <title>Expaq-Icon-Logo</title>
  <g id="Layer_4_copy_2" data-name="Layer 4 copy 2">
    <g>
      <g>
        <path class="cls-1" d="M169.64,61.08c-5.4,0-9.39,1.88-12.42,5.88-2.24-3.9-6.18-6-11.27-6-1.54,0-6.2.3-9.28,3.58l-.44-3H125.76v39.62h11.29V80.06c0-4.2,2.41-8.45,7-8.45s6.69,4.24,6.69,8.45v21.1H162V80.06c0-4.12,2.46-8.29,7.15-8.29,5.49,0,6.08,5.69,6.08,8.14v21.25h11.3V79.91C186.56,67.77,180.55,61.08,169.64,61.08Z" transform="translate(-52.99 -3.09)"/>
        <path class="cls-1" d="M224,65.05A15.64,15.64,0,0,0,212.9,60.7c-6,0-11.3,1.94-15,5.56s-5.63,8.88-5.63,15.09c0,6.48,2,11.85,5.67,15.54s8.58,5.42,14.5,5.42h.19a16.72,16.72,0,0,0,11.4-4.78l.3,3.63h10.68V61.62H224.21Zm-.32,16.34c0,5-3.11,10.39-10,10.39-6.06,0-10.12-4.19-10.12-10.43S207.67,71,213.73,71C220.58,71,223.69,76.39,223.69,81.39Z" transform="translate(-52.99 -3.09)"/>
        <path class="cls-1" d="M262.63,90.21a9.6,9.6,0,0,1-4.05,1c-2.53,0-3.87-1.49-3.87-4.33V71.69h10.43v-10H254.78V50.92l-11.29,1.2v9.57h-7v10h7V86.91c0,4.82,1.4,8.7,4,11.25a13.61,13.61,0,0,0,9.7,3.47H258a21.65,21.65,0,0,0,8-1.67l.87-.35-3.24-9.91Z" transform="translate(-52.99 -3.09)"/>
        <path class="cls-1" d="M304.94,66.33c-3.48-3.83-8.75-5.85-15.22-5.85-12.53,0-21,8.29-21,20.64,0,12.78,8.5,21,21.64,21,6.6,0,13.06-2.45,16.87-6.4L308,95l-7.36-7.27-.7.73c-2,2.08-6.31,3.2-9.34,3.2-5.21,0-8.92-2.27-10-6h29l.08-.9C310.42,76.93,308.78,70.54,304.94,66.33Zm-24,9.68c1.48-3.39,4.73-5.31,9.1-5.31,2.76,0,7.34.72,8.54,5.31Z" transform="translate(-52.99 -3.09)"/>
      </g>
      <g>
        <g>
          <polygon class="cls-1" points="44.9 71.25 63.57 43.72 46.72 43.72 46.71 43.72 53.31 43.72 53.31 46.52 45.12 46.52 45.12 46.46 39.24 56.59 41.8 56.59 41.8 62.66 35.72 62.66 35.72 62.64 29.71 52.29 20.02 52.29 20.02 43.72 6.88 43.72 45.5 99.58 64.63 99.58 44.9 71.25"/>
          <rect class="cls-1" x="21.97" y="20.53" width="12.15" height="12.15"/>
          <rect class="cls-1" y="8.31" width="6.08" height="6.08"/>
          <rect class="cls-1" x="8.48" y="13.75" width="10.05" height="10.05"/>
          <polygon class="cls-1" points="24.41 38.57 14.36 38.57 14.36 28.52 20.88 28.52 21 33.78 24.41 33.78 24.41 38.57"/>
          <rect class="cls-1" x="20.02" y="42.24" width="10.05" height="1.48"/>
          <polygon class="cls-1" points="36.92 30.13 36.92 46.52 45.12 46.52 45.12 43.72 53.31 43.72 53.31 30.13 36.92 30.13"/>
        </g>
        <g>
          <polygon class="cls-1" points="13.58 98.59 17.84 96.86 13.96 94.01 13.58 98.59"/>
          <path class="cls-1" d="M64.32,104.74a1.3,1.3,0,0,0,1,.24l.29-.08,8.49-3.45a1.34,1.34,0,0,0,.56-.44L85.85,85.72l-1.57-2.27-11,15,1,.75-1.54,2.1L70.83,100l-4.26,1.73L67,97.1l-1.9-1.4,1.54-2.1,1,.75L79.73,77.92l-1.07-.79.67-.9-.77-1.12L64.8,93.78a1.37,1.37,0,0,0-.25.67l-.76,9.13A1.29,1.29,0,0,0,64.32,104.74Z" transform="translate(-52.99 -3.09)"/>
          <polygon class="cls-1" points="26.74 74.83 28.27 75.95 26.34 73.14 25.67 74.04 26.74 74.83"/>
          <polygon class="cls-1" points="29.99 78.46 28.43 76.19 16.39 92.56 18.49 94.1 29.99 78.46"/>
          <polygon class="cls-1" points="12.06 92.61 13.96 94.01 17.84 96.86 19.73 98.25 21.28 96.15 20.25 95.4 18.49 94.1 16.39 92.56 14.63 91.26 13.6 90.51 12.06 92.61"/>
        </g>
      </g>
    </g>
  </g>
  <g id="Layer_8" data-name="Layer 8">
    <g>
      <rect class="cls-2" x="56.32" y="0.82" width="140.27" height="140.27" rx="37.18" ry="37.18"/>
      <g>
        <polygon class="cls-1" points="140.06 73.64 161.9 41.42 142.18 41.42 142.18 41.43 149.9 41.43 149.9 44.71 140.31 44.71 140.31 44.64 133.43 56.49 136.43 56.49 136.43 63.6 129.32 63.6 129.32 63.57 122.28 51.46 110.94 51.46 110.94 41.42 96.74 41.42 118.58 73.64 95.5 106.79 115.13 106.79 129.32 84.92 143.5 106.79 163.14 106.79 140.06 73.64"/>
        <rect class="cls-1" x="113.23" y="14.29" width="14.22" height="14.22"/>
        <rect class="cls-1" x="87.52" width="7.11" height="7.11"/>
        <rect class="cls-1" x="97.43" y="6.36" width="11.76" height="11.76"/>
        <polygon class="cls-1" points="116.08 35.41 104.32 35.41 104.32 23.64 111.95 23.64 112.09 29.8 116.08 29.8 116.08 35.41"/>
        <rect class="cls-1" x="110.94" y="39.69" width="11.76" height="1.73"/>
        <polygon class="cls-1" points="130.72 25.53 130.72 44.71 140.31 44.71 140.31 41.43 149.9 41.43 149.9 25.53 130.72 25.53"/>
      </g>
    </g>
  </g>
</svg>
